<svg width="48" height="32" viewBox="0 0 48 32" fill="none" xmlns="http://www.w3.org/2000/svg">
  <rect width="48" height="32" rx="4" fill="white" stroke="#E8E8E8"/>
  <path d="M22.5 12H21V18H22.5V15.5C22.5 14.5 23.2 13.8 24.2 13.8C24.4 13.8 24.6 13.8 24.8 13.9V12.5C24.6 12.4 24.4 12.4 24.2 12.4C23.3 12.4 22.7 12.9 22.5 13.5V12Z" fill="#5F6368"/>
  <path d="M19.5 15C19.5 16.4 18.4 17.5 17 17.5C15.6 17.5 14.5 16.4 14.5 15C14.5 13.6 15.6 12.5 17 12.5C18.4 12.5 19.5 13.6 19.5 15ZM18 15C18 14.4 17.6 14 17 14C16.4 14 16 14.4 16 15C16 15.6 16.4 16 17 16C17.6 16 18 15.6 18 15Z" fill="#5F6368"/>
  <path d="M26.5 15C26.5 16.4 27.6 17.5 29 17.5C30.4 17.5 31.5 16.4 31.5 15C31.5 13.6 30.4 12.5 29 12.5C27.6 12.5 26.5 13.6 26.5 15ZM30 15C30 15.6 29.6 16 29 16C28.4 16 28 15.6 28 15C28 14.4 28.4 14 29 14C29.6 14 30 14.4 30 15Z" fill="#5F6368"/>
  <path d="M33 19.5C32.2 19.5 31.5 19.2 31.5 18.5V12H33V13C33.3 12.6 33.9 12.5 34.5 12.5C35.9 12.5 37 13.6 37 15C37 16.4 35.9 17.5 34.5 17.5C33.9 17.5 33.3 17.4 33 17V19.5ZM35.5 15C35.5 14.4 35.1 14 34.5 14C33.9 14 33.5 14.4 33.5 15C33.5 15.6 33.9 16 34.5 16C35.1 16 35.5 15.6 35.5 15Z" fill="#5F6368"/>
  <path d="M11 15C11 16.4 12.1 17.5 13.5 17.5C14.5 17.5 15.2 17 15.6 16.3L14.5 15.7C14.3 16.1 13.9 16.3 13.5 16.3C12.8 16.3 12.3 15.8 12.3 15C12.3 14.2 12.8 13.7 13.5 13.7C13.9 13.7 14.3 13.9 14.5 14.3L15.6 13.7C15.2 13 14.5 12.5 13.5 12.5C12.1 12.5 11 13.6 11 15Z" fill="#5F6368"/>
  <path d="M9 10.5C9.8 10.5 10.5 9.8 10.5 9C10.5 8.2 9.8 7.5 9 7.5C8.2 7.5 7.5 8.2 7.5 9C7.5 9.8 8.2 10.5 9 10.5Z" fill="#EA4335"/>
  <path d="M9 10.5C8.2 10.5 7.5 11.2 7.5 12V15C7.5 15.8 8.2 16.5 9 16.5C9.8 16.5 10.5 15.8 10.5 15V12C10.5 11.2 9.8 10.5 9 10.5Z" fill="#34A853"/>
  <path d="M9 16.5C8.2 16.5 7.5 17.2 7.5 18C7.5 18.8 8.2 19.5 9 19.5C9.8 19.5 10.5 18.8 10.5 18C10.5 17.2 9.8 16.5 9 16.5Z" fill="#FBBC04"/>
  <path d="M9 7.5C8.2 7.5 7.5 8.2 7.5 9C7.5 9.8 8.2 10.5 9 10.5C9.8 10.5 10.5 9.8 10.5 9C10.5 8.2 9.8 7.5 9 7.5Z" fill="#4285F4"/>
</svg>
