<svg width="48" height="32" viewBox="0 0 48 32" fill="none" xmlns="http://www.w3.org/2000/svg">
  <rect width="48" height="32" rx="4" fill="#1A1F71"/>
  <path d="M19.5 11L16.5 21H14L15.8 14.5C15.9 14.1 16.1 13.8 16.4 13.7C16.7 13.5 17 13.4 17.4 13.4H17.8C18.3 13.4 18.7 13.6 18.9 14C19.1 14.3 19.2 14.7 19.1 15.1L18.5 17.5L19.5 11Z" fill="white"/>
  <path d="M23 11H20.5L18 21H20.5L23 11Z" fill="white"/>
  <path d="M29.5 13.5C28.8 13.2 27.9 13 26.8 13C24.5 13 22.8 14.2 22.8 15.9C22.8 17.2 24 17.9 24.9 18.3C25.8 18.7 26.1 18.9 26.1 19.2C26.1 19.7 25.5 19.9 24.9 19.9C24.1 19.9 23.7 19.8 23.1 19.5L22.8 19.4L22.5 21.2C23.1 21.5 24.2 21.7 25.4 21.7C27.8 21.7 29.5 20.5 29.5 18.7C29.5 17.7 28.8 16.9 27.3 16.3C26.5 15.9 26 15.7 26 15.4C26 15.1 26.4 14.8 27.2 14.8C27.9 14.8 28.5 14.9 28.9 15.1L29.1 15.2L29.5 13.5Z" fill="white"/>
  <path d="M33.5 11H31.8C31.2 11 30.8 11.2 30.5 11.7L27 21H29.4L29.9 19.5H32.9L33.2 21H35.3L33.5 11ZM30.6 17.5L31.7 14.2L32.3 17.5H30.6Z" fill="white"/>
</svg>
