<svg width="48" height="32" viewBox="0 0 48 32" fill="none" xmlns="http://www.w3.org/2000/svg">
  <rect width="48" height="32" rx="4" fill="#000000"/>
  <path d="M15.5 12.5C15.5 11.7 15.9 11 16.5 10.5C16.1 9.9 15.4 9.5 14.7 9.5C13.8 9.4 12.9 10.1 12.5 10.1C12 10.1 11.3 9.5 10.5 9.5C9.5 9.5 8.6 10.1 8.1 11C7 12.8 7.8 15.5 8.9 17C9.4 17.7 10 18.5 10.8 18.5C11.5 18.5 11.8 18 12.7 18C13.6 18 13.9 18.5 14.7 18.5C15.6 18.5 16.1 17.8 16.6 17.1C17.1 16.3 17.3 15.6 17.3 15.5C17.3 15.5 15.5 14.8 15.5 12.5Z" fill="white"/>
  <path d="M14 8.5C14.4 8 14.6 7.3 14.5 6.5C13.9 6.6 13.2 6.9 12.7 7.4C12.3 7.8 12 8.5 12.1 9.2C12.8 9.3 13.5 8.9 14 8.5Z" fill="white"/>
  <text x="19" y="19" fill="white" font-family="Arial, sans-serif" font-size="7" font-weight="bold">Pay</text>
</svg>
